<svg xmlns="http://www.w3.org/2000/svg" viewBox="0 0 24 24" fill="currentColor">
  <path d="M12 0C5.373 0 0 5.373 0 12c0 2.625.846 5.059 2.284 7.034L.153 23.486l4.452-2.131A11.94 11.94 0 0012 24c6.627 0 12-5.373 12-12S18.627 0 12 0zm0 22c-2.484 0-4.788-.809-6.641-2.175l-.457-.342-4.047 1.938 1.938-4.047-.342-.457A9.95 9.95 0 010 12c0-5.514 4.486-10 10-10s10 4.486 10 10-4.486 10-10 10zm5.53-7.53c-.242-.242-1.453-.725-1.695-.807-.242-.082-.418-.123-.594.123-.176.246-.682.807-.836.969-.154.162-.309.184-.572.061-.264-.123-1.111-.41-2.116-1.304-.781-.697-1.309-1.557-1.463-1.82-.154-.264-.016-.406.115-.537.119-.119.264-.309.396-.463.132-.154.176-.264.264-.44.088-.176.044-.33-.022-.463-.066-.132-.594-1.432-.814-1.961-.215-.518-.435-.447-.594-.455-.154-.007-.33-.009-.506-.009s-.462.066-.704.33c-.242.264-.924.904-.924 2.204 0 1.3.947 2.557 1.079 2.733.132.176 1.863 2.843 4.515 3.986.631.272 1.122.435 1.505.557.632.201 1.207.173 1.661.105.507-.076 1.453-.594 1.695-1.167.242-.573.242-1.079.176-1.167-.066-.088-.242-.132-.506-.231z"/>
</svg> 